<?xml version="1.0"?>
<svg xmlns="http://www.w3.org/2000/svg" xmlns:xlink="http://www.w3.org/1999/xlink" xmlns:svgjs="http://svgjs.com/svgjs" version="1.1" width="512" height="512" x="0" y="0" viewBox="0 0 512 512" style="enable-background:new 0 0 512 512" xml:space="preserve"><g>
<g xmlns="http://www.w3.org/2000/svg">
	<g>
		<path d="M231.385,123.077h-59.077c-8.157,0-14.769,6.613-14.769,14.769v59.077c0,8.157,6.613,14.769,14.769,14.769h59.077    c8.156,0,14.769-6.613,14.769-14.769v-59.077C246.154,129.69,239.541,123.077,231.385,123.077z M216.615,182.154h-29.538v-29.539    h29.538V182.154z" fill="#8e8e8e" data-original="#000000" style=""/>
	</g>
</g>
<g xmlns="http://www.w3.org/2000/svg">
	<g>
		<path d="M339.692,123.077h-59.077c-8.156,0-14.769,6.613-14.769,14.769v59.077c0,8.157,6.613,14.769,14.769,14.769h59.077    c8.157,0,14.769-6.613,14.769-14.769v-59.077C354.462,129.69,347.849,123.077,339.692,123.077z M324.923,182.154h-29.538v-29.539    h29.538V182.154z" fill="#8e8e8e" data-original="#000000" style=""/>
	</g>
</g>
<g xmlns="http://www.w3.org/2000/svg">
	<g>
		<path d="M231.385,251.077h-59.077c-8.157,0-14.769,6.613-14.769,14.769v59.077c0,8.157,6.613,14.769,14.769,14.769h59.077    c8.156,0,14.769-6.613,14.769-14.769v-59.077C246.154,257.69,239.541,251.077,231.385,251.077z M216.615,310.154h-29.538v-29.539    h29.538V310.154z" fill="#8e8e8e" data-original="#000000" style=""/>
	</g>
</g>
<g xmlns="http://www.w3.org/2000/svg">
	<g>
		<path d="M339.692,251.077h-59.077c-8.156,0-14.769,6.613-14.769,14.769v59.077c0,8.157,6.613,14.769,14.769,14.769h59.077    c8.157,0,14.769-6.613,14.769-14.769v-59.077C354.462,257.69,347.849,251.077,339.692,251.077z M324.923,310.154h-29.538v-29.539    h29.538V310.154z" fill="#8e8e8e" data-original="#000000" style=""/>
	</g>
</g>
<g xmlns="http://www.w3.org/2000/svg" style="opacity:0.98;enable-background:new    ;">
	<g>
		<path d="M452.923,482.462h-44.308V93.538h24.615c8.157,0,14.769-6.613,14.769-14.769v-64C448,6.613,441.387,0,433.231,0H78.769    C70.613,0,64,6.613,64,14.769v64c0,8.157,6.613,14.769,14.769,14.769h24.615v388.923H59.077c-8.157,0-14.769,6.613-14.769,14.769    S50.92,512,59.077,512h393.846c8.157,0,14.769-6.613,14.769-14.769S461.08,482.462,452.923,482.462z M93.538,64V29.538h324.923V64    H93.538z M280.615,482.462h-49.231v-73.846h49.231V482.462z M379.077,482.462h-68.923v-88.615c0-8.157-6.613-14.769-14.769-14.769    h-78.769c-8.156,0-14.769,6.613-14.769,14.769v88.615h-68.923V93.538h246.154V482.462z" fill="#8e8e8e" data-original="#000000" style=""/>
	</g>
</g>
<g xmlns="http://www.w3.org/2000/svg">
</g>
<g xmlns="http://www.w3.org/2000/svg">
</g>
<g xmlns="http://www.w3.org/2000/svg">
</g>
<g xmlns="http://www.w3.org/2000/svg">
</g>
<g xmlns="http://www.w3.org/2000/svg">
</g>
<g xmlns="http://www.w3.org/2000/svg">
</g>
<g xmlns="http://www.w3.org/2000/svg">
</g>
<g xmlns="http://www.w3.org/2000/svg">
</g>
<g xmlns="http://www.w3.org/2000/svg">
</g>
<g xmlns="http://www.w3.org/2000/svg">
</g>
<g xmlns="http://www.w3.org/2000/svg">
</g>
<g xmlns="http://www.w3.org/2000/svg">
</g>
<g xmlns="http://www.w3.org/2000/svg">
</g>
<g xmlns="http://www.w3.org/2000/svg">
</g>
<g xmlns="http://www.w3.org/2000/svg">
</g>
</g></svg>
