<svg xmlns="http://www.w3.org/2000/svg" width="272.264" height="49" viewBox="0 0 272.264 49"><path d="M493.974-211.663a.984.984,0,0,0,.984.984.984.984,0,0,0,.984-.984v-11.725a.984.984,0,0,0-.984-.984.984.984,0,0,0-.984.984Z" transform="translate(-369.446 241.839)" fill="#fff"/><path d="M495.109-245.947h-1.367a1.375,1.375,0,0,0-1.5,1.367v1.5h1.5a1.405,1.405,0,0,0,1.367-1.5Z" transform="translate(-368.148 257.975)" fill="#fff"/><path d="M432.827-245.947a.97.97,0,0,0-.984.955q0,.028,0,.056v6.532a6.439,6.439,0,0,0-5.166-2.323,6.928,6.928,0,0,0-7.079,7.079,6.808,6.808,0,0,0,6.832,7.079,6.069,6.069,0,0,0,4.592-1.858,1,1,0,0,0,0-1.339.949.949,0,0,0-1.339,0,4.061,4.061,0,0,1-3.252,1.339,4.875,4.875,0,0,1-4.728-5.22,5.022,5.022,0,0,1,5.084-5.22c2.87,0,5.056,2.186,5.056,5.9v5.166a.984.984,0,0,0,.984.984.984.984,0,0,0,.984-.984v-18.148Z" transform="translate(-313.82 257.975)" fill="#fff"/><path d="M363.474-214.441a.975.975,0,0,1,1.339,0,.925.925,0,0,1,.032,1.308l-.032.032a7.984,7.984,0,0,1-5.439,2.022c-4.373,0-7.434-3.034-7.434-7.079a6.964,6.964,0,0,1,7.161-7.079c4.182,0,7.462,3.007,6.888,8.036h-9.731v-.958a.854.854,0,0,1,.832-.876c.023,0,.046,0,.07,0h6.835a4.683,4.683,0,0,0-4.892-4.346,5.071,5.071,0,0,0-5.084,5.22,5.119,5.119,0,0,0,5.357,5.22,5.831,5.831,0,0,0,4.1-1.5Z" transform="translate(-263.218 242.486)" fill="#fff"/><path d="M270.079-225.242a5.538,5.538,0,0,0-4.838,2.405,5.063,5.063,0,0,0-4.728-2.405,5.216,5.216,0,0,0-4.4,2v-.793a.984.984,0,0,0-.984-.984.984.984,0,0,0-.984.984v11.725a.984.984,0,0,0,.984.984.984.984,0,0,0,.984-.984v-7.106a3.973,3.973,0,0,1,3.954-3.991h.091a3.537,3.537,0,0,1,3.69,3.854v7.243a.984.984,0,0,0,.984.984.984.984,0,0,0,.984-.984v-7.106a3.845,3.845,0,0,1,4.045-3.99,3.543,3.543,0,0,1,3.69,3.826v8.254h.983a.969.969,0,0,0,.984-.955c0-.019,0-.038,0-.056V-219.8a5.093,5.093,0,0,0-5.439-5.439Z" transform="translate(-190.077 242.49)" fill="#fff"/><path d="M196.609-214.441a.975.975,0,0,1,1.339,0,.925.925,0,0,1,.032,1.307l-.032.032a7.983,7.983,0,0,1-5.439,2.022c-4.373,0-7.434-3.034-7.434-7.079a6.964,6.964,0,0,1,7.161-7.079c4.182,0,7.462,3.007,6.888,8.036h-9.731v-.958a.854.854,0,0,1,.832-.876c.023,0,.047,0,.07,0h6.832a4.683,4.683,0,0,0-4.892-4.346,5.071,5.071,0,0,0-5.084,5.22,5.119,5.119,0,0,0,5.357,5.22,5.831,5.831,0,0,0,4.1-1.5Z" transform="translate(-138.419 242.486)" fill="#fff"/><path d="M156.259-225.241a5.53,5.53,0,0,0-5.111,2.515v-1.311a.984.984,0,0,0-.984-.984.984.984,0,0,0-.984.984v11.725a.984.984,0,0,0,.984.984.984.984,0,0,0,.984-.984v-6.04a4.962,4.962,0,0,1,5.111-5,.934.934,0,0,0,.956-.911q0-.023,0-.045v-.929Z" transform="translate(-111.573 242.489)" fill="#fff"/><path d="M89.384-245.948H83.261v18.121a.989.989,0,0,0,.938,1.039.95.95,0,0,0,.1,0,.968.968,0,0,0,1.013-.921,1.012,1.012,0,0,0,0-.117v-16.208h4.073c2.842,0,5.111,1.558,5.111,4.563s-2.269,4.7-5.111,4.7h-.847a.934.934,0,0,0-.956.911q0,.023,0,.045v.958h1.8c4.346,0,7.215-2.788,7.215-6.614s-2.87-6.478-7.215-6.478Z" transform="translate(-62.271 257.976)" fill="#fff"/><path d="M1041.313-224.589l-5.329,12.682-5.63-12.682h-.875l6.04,13.638-2.952,6.942h.847l8.8-20.58h-.9Z" transform="translate(-769.952 242.001)" fill="#fff"/><path d="M952.525-225.673a5.42,5.42,0,0,0-5.275,3.881,5.01,5.01,0,0,0-5.111-3.881,5.435,5.435,0,0,0-5.083,3.334V-225.4h-.82v13.748h.82v-8.336a4.887,4.887,0,0,1,4.827-4.947h.092c2.706,0,4.646,1.8,4.646,4.92v8.363h.82v-8.336a4.871,4.871,0,0,1,4.793-4.947h.126c2.706,0,4.646,1.8,4.646,4.92v8.363h.82V-220.1c0-3.5-2.241-5.575-5.3-5.575Z" transform="translate(-700.215 242.812)" fill="#fff"/><path d="M875.219-225.67a6.876,6.876,0,0,0-6.859,7.134,6.784,6.784,0,0,0,7,7.16,6.267,6.267,0,0,0,6.26-4.538h-.792a5.525,5.525,0,0,1-5.468,3.827,6.079,6.079,0,0,1-6.2-6.2H881.86A6.6,6.6,0,0,0,875.219-225.67Zm-6.068,6.7a6.113,6.113,0,0,1,6.1-5.985,5.793,5.793,0,0,1,5.849,5.985Z" transform="translate(-649.45 242.81)" fill="#fff"/><path d="M812.273-251.37v10.55a6.55,6.55,0,0,0-6.121-4.074,6.863,6.863,0,0,0-6.862,7.134,6.869,6.869,0,0,0,6.862,7.162,6.534,6.534,0,0,0,6.121-4.1v3.827h.822v-20.5Zm-6.04,20.034a6.159,6.159,0,0,1-6.093-6.423,6.152,6.152,0,0,1,6.093-6.4,6.142,6.142,0,0,1,6.04,6.4A6.15,6.15,0,0,1,806.233-231.336Z" transform="translate(-597.792 262.031)" fill="#fff"/><path d="M743.213-225.4v3.8a6.55,6.55,0,0,0-6.123-4.071,6.861,6.861,0,0,0-6.859,7.134,6.868,6.868,0,0,0,6.859,7.16,6.536,6.536,0,0,0,6.123-4.1v3.827h.819V-225.4Zm-6.04,13.283a6.16,6.16,0,0,1-6.1-6.423,6.154,6.154,0,0,1,6.1-6.4,6.145,6.145,0,0,1,6.04,6.4A6.151,6.151,0,0,1,737.173-212.116Z" transform="translate(-546.142 242.811)" fill="#fff"/><path d="M673.257-211.378a6.519,6.519,0,0,0,6.586-5.576h-.82a5.75,5.75,0,0,1-5.767,4.838,6.111,6.111,0,0,1-6.176-6.423c0-3.553,2.351-6.4,6.176-6.4a5.825,5.825,0,0,1,5.767,4.837h.82a6.587,6.587,0,0,0-6.586-5.575,6.8,6.8,0,0,0-7,7.134,6.881,6.881,0,0,0,7,7.161Z" transform="translate(-498.299 242.811)" fill="#fff"/><path d="M605.341-246.59h-.328l-8.254,19.3h.847l2.186-5.11h10.742l2.188,5.11h.9ZM600.1-233.143l5.082-11.889,5.057,11.889Z" transform="translate(-446.32 258.456)" fill="#fff"/><path d="M524.65-216.514a.99.99,0,0,0-.738-.3h-.983v.875a.973.973,0,0,0,.191.655l3.936,4.318a.989.989,0,0,0,1.394,0,1.076,1.076,0,0,0,0-1.394Zm-8.773,4.127a1.113,1.113,0,0,0,0,1.421,1.023,1.023,0,0,0,1.421,0l3.936-4.318a.848.848,0,0,0,.192-.655v-.875h-.983a1.1,1.1,0,0,0-.765.274Zm12.573-10.386a.983.983,0,0,0,0-1.367.948.948,0,0,0-1.339,0l-3.963,4.264a.953.953,0,0,0-.219.655v.9h.983a1.034,1.034,0,0,0,.738-.328Zm-8.746,4.127a1.084,1.084,0,0,0,.738.328h.983v-.9a.839.839,0,0,0-.219-.655L517.3-224.14a.924.924,0,0,0-1.307-.032l-.032.032a.983.983,0,0,0,0,1.367Z" transform="translate(-385.635 241.88)" fill="#fff"/><path d="M3137.765,435a24.5,24.5,0,1,1,17.324-7.176A24.339,24.339,0,0,1,3137.765,435Zm-3.938-23.188a2.536,2.536,0,0,0-1.677.634l-8.781,9.6a2.576,2.576,0,0,0,0,3.284,2.362,2.362,0,0,0,3.284,0l9.1-9.979a1.966,1.966,0,0,0,.443-1.515v-2.022h-2.272Zm5.839,0h0v2.021a2.249,2.249,0,0,0,.442,1.515l9.1,9.98a2.288,2.288,0,0,0,3.222,0,2.478,2.478,0,0,0,0-3.222l-8.782-9.6a2.3,2.3,0,0,0-1.642-.7h-2.336Zm-14.56-17.591a2.127,2.127,0,0,0-1.473.589c-.025.024-.05.049-.074.075a2.263,2.263,0,0,0,0,3.158l8.652,9.536a2.5,2.5,0,0,0,1.706.758h2.272v-2.084a1.941,1.941,0,0,0-.5-1.515l-9.031-9.853A2.117,2.117,0,0,0,3125.105,394.222Zm25.77.022a2.177,2.177,0,0,0-1.548.64l-9.158,9.854a2.2,2.2,0,0,0-.5,1.515v2.084h2.271a2.4,2.4,0,0,0,1.706-.758l8.782-9.537a2.265,2.265,0,0,0,0-3.158A2.179,2.179,0,0,0,3150.875,394.244Z" transform="translate(-3113.265 -386)" fill="#fff" opacity="0"/></svg>