<?xml version="1.0" encoding="UTF-8" standalone="no"?>
<!DOCTYPE svg PUBLIC "-//W3C//DTD SVG 1.1//EN" "http://www.w3.org/Graphics/SVG/1.1/DTD/svg11.dtd">
<svg version="1.1" xmlns="http://www.w3.org/2000/svg" xmlns:xlink="http://www.w3.org/1999/xlink" preserveAspectRatio="xMidYMid meet" viewBox="0 0 44 44" width="44" height="44"><defs><path d="M2.08 2.08C2.6 1.56 3.45 1.56 3.97 2.08C7.3 5.41 16.34 14.45 19.67 17.78C20.2 18.3 20.2 19.15 19.67 19.67C19.48 19.86 19.86 19.48 19.67 19.67C19.15 20.2 18.3 20.2 17.78 19.67C14.45 16.34 5.41 7.3 2.08 3.97C1.56 3.45 1.56 2.6 2.08 2.08C2.27 1.89 1.89 2.27 2.08 2.08Z" id="b3MNuZ2Bk1"></path><path d="M24.33 24.33C24.85 23.8 25.7 23.8 26.22 24.33C29.55 27.66 38.59 36.7 41.92 40.03C42.44 40.55 42.44 41.4 41.92 41.92C41.73 42.11 42.11 41.73 41.92 41.92C41.4 42.44 40.55 42.44 40.03 41.92C36.7 38.59 27.66 29.55 24.33 26.22C23.8 25.7 23.8 24.85 24.33 24.33C24.52 24.14 24.14 24.52 24.33 24.33Z" id="cu8EHYS0c"></path><path d="M2.08 41.92C2.6 42.44 3.45 42.44 3.97 41.92C7.3 38.59 16.34 29.55 19.67 26.22C20.2 25.7 20.2 24.85 19.67 24.33C19.48 24.14 19.86 24.52 19.67 24.33C19.15 23.8 18.3 23.8 17.78 24.33C14.45 27.66 5.41 36.7 2.08 40.03C1.56 40.55 1.56 41.4 2.08 41.92C2.27 42.11 1.89 41.73 2.08 41.92Z" id="egmT7VwTc"></path><path d="M24.33 19.67C24.85 20.2 25.7 20.2 26.22 19.67C29.55 16.34 38.59 7.3 41.92 3.97C42.44 3.45 42.44 2.6 41.92 2.08C41.73 1.89 42.11 2.27 41.92 2.08C41.4 1.56 40.55 1.56 40.03 2.08C36.7 5.41 27.66 14.45 24.33 17.78C23.8 18.3 23.8 19.15 24.33 19.67C24.52 19.86 24.14 19.48 24.33 19.67Z" id="b1JeMFei1u"></path></defs><g><g><g><use xlink:href="#b3MNuZ2Bk1" opacity="1" fill="#000000" fill-opacity="1"></use><g><use xlink:href="#b3MNuZ2Bk1" opacity="1" fill-opacity="0" stroke="#000000" stroke-width="2" stroke-opacity="1"></use></g></g><g><use xlink:href="#cu8EHYS0c" opacity="1" fill="#000000" fill-opacity="1"></use><g><use xlink:href="#cu8EHYS0c" opacity="1" fill-opacity="0" stroke="#000000" stroke-width="2" stroke-opacity="1"></use></g></g><g><use xlink:href="#egmT7VwTc" opacity="1" fill="#000000" fill-opacity="1"></use><g><use xlink:href="#egmT7VwTc" opacity="1" fill-opacity="0" stroke="#000000" stroke-width="2" stroke-opacity="1"></use></g></g><g><use xlink:href="#b1JeMFei1u" opacity="1" fill="#000000" fill-opacity="1"></use><g><use xlink:href="#b1JeMFei1u" opacity="1" fill-opacity="0" stroke="#000000" stroke-width="2" stroke-opacity="1"></use></g></g></g></g></svg>